<?xml version="1.0" encoding="iso-8859-1"?>
<!-- Generator: Adobe Illustrator 19.0.0, SVG Export Plug-In . SVG Version: 6.00 Build 0)  -->
<svg version="1.1" id="Capa_1" xmlns="http://www.w3.org/2000/svg" xmlns:xlink="http://www.w3.org/1999/xlink" x="0px" y="0px"
	 viewBox="0 0 512 512" style="enable-background:new 0 0 512 512;" xml:space="preserve">
<g>
	<g>
		<path d="M433.527,72.449C385.736,45.72,322.689,31,256,31S126.264,45.72,78.473,72.449C27.869,100.751,0,139.302,0,181v150
			c0,41.699,27.869,80.25,78.473,108.551C126.264,466.28,189.311,481,256,481s129.736-14.72,177.527-41.449
			C484.131,411.25,512,372.699,512,331V181C512,139.302,484.131,100.751,433.527,72.449z M418.884,413.368
			C375.493,437.635,317.646,451,256,451s-119.493-13.365-162.884-37.632C52.415,390.604,30,361.353,30,331v-79.149
			c0.929,1.021,1.872,2.039,2.842,3.047c19.523,20.284,47.419,37.893,80.672,50.922c4.547,1.781,7.485,5.778,7.485,10.18v30
			c0,24.813,20.187,45,45,45h180c24.813,0,45-20.187,45-45v-30c0-4.403,2.938-8.399,7.484-10.18
			c33.254-13.029,61.15-30.638,80.673-50.922c0.971-1.009,1.913-2.026,2.843-3.048V331H482
			C482,361.353,459.585,390.604,418.884,413.368z M387.54,277.887C371.418,284.205,361,299.165,361,316v30c0,8.271-6.729,15-15,15
			H166c-8.271,0-15-6.729-15-15v-30c0-16.836-10.418-31.796-26.541-38.113C65.312,254.713,30,218.493,30,181
			c0-30.352,22.415-59.604,63.116-82.368C136.507,74.365,194.354,61,256,61s119.493,13.365,162.884,37.632
			C459.585,121.396,482,150.648,482,181C482,218.493,446.688,254.713,387.54,277.887z"/>
	</g>
</g>
<g>
	<g>
		<path d="M394.557,120.155C356.77,101.354,307.563,91,256,91c-51.562,0-100.769,10.354-138.556,29.155
			C82.101,137.74,61,160.486,61,181c0,24.187,29.195,51.249,74.382,68.944C163.094,260.789,181,286.717,181,316
			c0,8.284,6.716,15,15,15h120c8.284,0,15-6.716,15-15c0-29.283,17.895-55.206,45.593-66.043c6.175-2.419,12.04-5.017,17.584-7.754
			c0.06-0.028,0.119-0.06,0.178-0.089C429.29,224.827,451,201.846,451,181C451,160.486,429.899,137.74,394.557,120.155z
			 M302.108,301H209.89c-5.181-34.704-28.163-64.312-61.592-78.179C173.637,196.688,213.238,181,256,181
			c42.764,0,82.365,15.689,107.703,41.823C330.272,236.677,307.289,266.287,302.108,301z M409.258,196.816
			c-3.899,3.489-9.55,7.858-17.348,12.513C361.337,173.065,310.587,151,256,151c-54.588,0-105.338,22.066-135.911,58.33
			c-7.8-4.655-13.452-9.025-17.351-12.515C93.268,188.338,91.035,182.404,91,181c0-3.786,9.434-18.873,39.808-33.986
			C164.524,130.239,208.985,121,256,121c47.016,0,91.477,9.239,125.192,26.014c30.373,15.112,39.808,30.2,39.808,33.98
			C420.965,182.404,418.731,188.338,409.258,196.816z"/>
	</g>
</g>
<g>
</g>
<g>
</g>
<g>
</g>
<g>
</g>
<g>
</g>
<g>
</g>
<g>
</g>
<g>
</g>
<g>
</g>
<g>
</g>
<g>
</g>
<g>
</g>
<g>
</g>
<g>
</g>
<g>
</g>
</svg>
