<?xml version="1.0" encoding="iso-8859-1"?>
<!-- Generator: Adobe Illustrator 19.0.0, SVG Export Plug-In . SVG Version: 6.00 Build 0)  -->
<svg version="1.1" id="Capa_1" xmlns="http://www.w3.org/2000/svg" xmlns:xlink="http://www.w3.org/1999/xlink" x="0px" y="0px"
	 viewBox="0 0 512 512" style="enable-background:new 0 0 512 512;" xml:space="preserve">
<g>
	<g>
		<path d="M473.237,120.442c-13.378-33.056-41.855-62.688-81.281-84.274C349.356,12.845,295.746,0,241,0
			C177.925,0,118.303,16.489,73.116,46.43C25.966,77.671,0,119.78,0,165v182c0,45.22,25.966,87.329,73.116,118.57
			C118.302,495.511,177.925,512,241,512s122.698-16.489,167.884-46.43C456.034,434.329,482,392.22,482,347V207.42
			c17.459-6.192,30-22.865,30-42.42C512,142.304,495.107,123.489,473.237,120.442z M89.686,71.438C130.015,44.716,183.752,30,241,30
			c49.797,0,98.291,11.536,136.548,32.482c28.387,15.542,49.853,35.503,62.239,57.518h-36.585
			C392.381,107.386,377.567,96.268,360,87.138C327.234,70.11,284.888,60,241,60c-46.575,0-91.298,11.041-125.929,31.088
			C80.072,111.348,60,138.288,60,165c0,26.712,20.072,53.652,55.071,73.912C149.702,258.959,194.425,270,241,270
			c32.226,0,63.619-5.451,91-15.089c29.902-10.525,55.017-26.044,71.202-44.911h36.585c-12.386,22.015-33.852,41.976-62.239,57.518
			C339.291,288.464,290.797,300,241,300c-57.248,0-110.985-14.716-151.314-41.438C51.197,233.059,30,199.831,30,165
			S51.197,96.941,89.686,71.438z M347,210h9.964c-9.832,6.213-21.572,11.947-34.963,16.702C299.32,234.756,271.904,240,241,240
			c-45.651,0-83.576-11.417-110-26.566C104.882,198.461,90,179.842,90,165s14.882-33.461,41-48.434
			C157.424,101.417,195.349,90,241,90c37.07,0,69.122,7.546,94,18.434c8.108,3.549,15.454,7.452,21.963,11.566H347
			c-24.813,0-45,20.187-45,45S322.187,210,347,210z M452,347c0,34.831-21.197,68.059-59.686,93.562
			C351.985,467.284,298.248,482,241,482s-110.985-14.716-151.314-41.438C51.197,415.059,30,381.831,30,347V245.146
			c11.363,14.016,25.805,26.955,43.116,38.424C118.303,313.511,177.925,330,241,330c54.746,0,108.356-12.845,150.956-36.168
			c24.625-13.482,44.973-30.105,60.044-48.738V347z M467,180c-34.689,0-83.023,0-120,0c-8.271,0-15-6.729-15-15s6.729-15,15-15
			c39.662,0,86.135,0,120,0c8.271,0,15,6.729,15,15S475.271,180,467,180z"/>
	</g>
</g>
<g>
	<g>
		<path d="M354.928,364.266c-4.397-2.738-9.898-3.013-14.547-0.726l-52.546,25.842C274.289,379.554,245.301,362,211,362
			c-46.487,0-84.245,32.295-85.83,33.67c-3.284,2.849-5.17,6.983-5.17,11.33s1.886,8.481,5.17,11.33
			C126.755,419.705,164.513,452,211,452c34.301,0,63.289-17.554,76.834-27.382l52.546,25.842c4.638,2.281,10.139,2.018,14.547-0.726
			C359.326,446.995,362,442.181,362,437v-60C362,371.819,359.326,367.005,354.928,364.266z M211,422
			c-19.275,0-37.249-7.866-49.584-14.999C173.756,399.864,191.727,392,211,392c19.271,0,36.961,7.88,49.012,15
			C247.961,414.12,230.271,422,211,422z M332,412.907L319.989,407L332,401.093V412.907z"/>
	</g>
</g>
<g>
</g>
<g>
</g>
<g>
</g>
<g>
</g>
<g>
</g>
<g>
</g>
<g>
</g>
<g>
</g>
<g>
</g>
<g>
</g>
<g>
</g>
<g>
</g>
<g>
</g>
<g>
</g>
<g>
</g>
</svg>
