<?xml version="1.0" encoding="iso-8859-1"?>
<!-- Generator: Adobe Illustrator 19.0.0, SVG Export Plug-In . SVG Version: 6.00 Build 0)  -->
<svg version="1.1" id="Capa_1" xmlns="http://www.w3.org/2000/svg" xmlns:xlink="http://www.w3.org/1999/xlink" x="0px" y="0px"
	 viewBox="0 0 512.001 512.001" style="enable-background:new 0 0 512.001 512.001;" xml:space="preserve">
<g>
	<g>
		<path d="M356.606,365.396l-19.394-19.393l19.394-19.393c5.858-5.858,5.858-15.355-0.001-21.213
			c-5.857-5.858-15.355-5.858-21.213,0l-25.607,25.607H202.214l-25.607-25.607c-5.857-5.858-15.355-5.858-21.213,0
			c-5.858,5.858-5.858,15.355,0,21.213l19.394,19.393l-19.394,19.393c-5.858,5.858-5.858,15.355,0,21.213
			c5.857,5.857,15.355,5.858,21.213,0l25.607-25.607h107.572l25.607,25.607c5.857,5.857,15.355,5.858,21.213,0
			C362.463,380.751,362.463,371.254,356.606,365.396z"/>
	</g>
</g>
<g>
	<g>
		<path d="M480.039,423.936l-19.89-120.262c-4.223-25.337-21.669-46.241-44.576-56.265c3.458-6.369,5.425-13.661,5.425-21.404
			c0-21.886-15.708-40.162-36.439-44.172l21.147-21.553c20.398,5.41,42.52-0.223,57.718-15.421
			c23.448-23.447,23.452-61.401,0-84.852c-7.45-7.45-16.729-12.72-26.891-15.396c-3.341-12.665-10.636-23.457-20.172-31.208
			c-23.577-19.19-58.281-17.757-80.215,4.179c-15.235,15.234-20.858,37.432-15.382,57.865L216.11,181.006h-80.108
			c-11.954,0-23.347,4.597-32.077,12.944c-8.978,8.582-13.922,19.966-13.922,32.055c0,7.555,1.931,14.835,5.571,21.328
			c-22.561,9.901-39.435,30.619-43.725,56.359L31.961,423.937c-18.472,5.605-31.956,22.787-31.956,43.065
			c0,24.812,20.186,44.998,44.999,44.998h421.993c24.813,0,44.999-20.187,44.999-44.999
			C511.996,446.724,498.511,429.542,480.039,423.936z M348.746,89.835c4.452-4.491,5.609-11.292,2.895-17.003
			c-5.459-11.479-3.161-25.157,5.718-34.036l0.001-0.001c10.919-10.921,28.299-11.675,40.102-2.093
			c0.017,0.014,0.035,0.027,0.053,0.041c13.056,10.646,15.283,31.464,2.271,44.477c-5.858,5.858-5.858,15.355,0,21.213
			c5.857,5.858,15.355,5.858,21.213,0c7.44-7.44,12.503-16.365,15.211-25.829c2.039,1.181,4.07,2.684,6.002,4.616
			c11.725,11.725,11.725,30.699,0,42.425c-8.88,8.879-22.555,11.179-34.036,5.719c-5.777-2.749-12.666-1.527-17.148,3.041
			l-47.684,48.599h-84.987L348.746,89.835z M136.002,211.006h239.996c8.271,0,15,6.729,15,15c0,8.271-6.729,15-15,15H136.002
			c-8.523,0-16-7.009-16-15C120.003,218.015,127.479,211.006,136.002,211.006z M81.442,308.607
			c3.632-21.788,22.3-37.601,44.387-37.601c9.026,0,247.349,0,259.341,0c22.302,0,41.813,16.166,45.384,37.582l18.758,113.415
			H62.688L81.442,308.607z M466.997,482.001H45.004c-8.271,0-15-6.729-15-15c0-8.271,6.728-15,15-15h421.993c8.271,0,15,6.729,15,15
			C481.996,475.272,475.267,482.001,466.997,482.001z"/>
	</g>
</g>
<g>
</g>
<g>
</g>
<g>
</g>
<g>
</g>
<g>
</g>
<g>
</g>
<g>
</g>
<g>
</g>
<g>
</g>
<g>
</g>
<g>
</g>
<g>
</g>
<g>
</g>
<g>
</g>
<g>
</g>
</svg>
