<svg id="Capa_1" data-name="Capa 1" xmlns="http://www.w3.org/2000/svg" viewBox="0 0 436.42 639.02"><g id="Page-1"><g id="_020---Flea-Spray" data-name="020---Flea-Spray"><path id="Shape" d="M53.91,584.29H255.36a78.5,78.5,0,0,0,78.34-78.47V290.71A82.63,82.63,0,0,0,333,282c0-.12.07-.24.07-.37,0-.33-.16-.6-.18-.92a77.7,77.7,0,0,0-60.49-66.57l-13.1-2.92a33.32,33.32,0,0,1-26.1-30.49,11.2,11.2,0,0,0,11-11.21V135.86a22.45,22.45,0,0,0-10.56-19,49,49,0,0,1,9.91-23.42c28.58,61.66,105.81,85.68,109.35,86.75a11.2,11.2,0,0,0,14.4-10.74V124.65a11.21,11.21,0,0,0-7-10.42A60.86,60.86,0,0,1,322.6,62.9a48.65,48.65,0,0,0,18.93-16.73h48.13A22.4,22.4,0,0,0,412,23.75V-21.1a22.4,22.4,0,0,0-22.38-22.42H341.78a22.32,22.32,0,0,0-19.27-11.21H121.06c-60.84,0-128,31.94-133.89,121.59A22.94,22.94,0,0,0-6.74,83.94,22.36,22.36,0,0,0,9.53,91H65.1a11.2,11.2,0,0,1,11.19,11.21v14.33A22.34,22.34,0,0,0,65.1,135.86v33.63a11.19,11.19,0,0,0,11,11.21A33.31,33.31,0,0,1,50,211.19l-13.09,2.92a77.7,77.7,0,0,0-60.44,66.57c0,.32-.18.59-.18.92,0,.13.07.25.07.37a82.63,82.63,0,0,0-.74,8.74V505.82A78.49,78.49,0,0,0,53.91,584.29Zm257.4-291.48v201.8H-2V292.81ZM255.36,561.87H53.91A56.08,56.08,0,0,1-.93,517H310.2A56.08,56.08,0,0,1,255.36,561.87Zm-167.88-426h134.3v22.42H87.48Zm257.41-4v21.44c-22.64-9.59-65.67-32.42-82.46-72.27a48.49,48.49,0,0,1,5.95-1.4,232,232,0,0,0,33.1-7.79A81.91,81.91,0,0,0,344.89,131.88ZM389.66,23.75H344.89V-21.1h44.77ZM65.1,68.59,9.51,68.33C15.69-25,96.44-32.31,121.06-32.31H322.51V33.84c-1,2.08-9.47,15.6-57.8,23.67a63.87,63.87,0,0,0-53.26,55.92H98.67V102.22A33.6,33.6,0,0,0,65.1,68.59ZM41.77,236l13.09-2.91A55.66,55.66,0,0,0,98.67,180.7H210.59a55.68,55.68,0,0,0,43.77,52.38L267.45,236a55.57,55.57,0,0,1,40,34.4H1.8A55.59,55.59,0,0,1,41.77,236Z" transform="translate(24.38 54.73)"/><path id="Shape-2" data-name="Shape" d="M93.08,392.41,88.9,409.22l-30,20a11.21,11.21,0,0,0,12.43,18.66l33.57-22.42a11.3,11.3,0,0,0,4.66-6.62l6.21-25.14h5.26a22.54,22.54,0,0,1,12.47,5.67l-11.06,33.11L102,453.05a11.2,11.2,0,1,0,15.83,15.85l22.38-22.42a11.23,11.23,0,0,0,2.7-4.37l9.59-28.75a90,90,0,0,0,13.37,7.25v17.94a11.22,11.22,0,0,0,5,9.33l33.58,22.42a11.2,11.2,0,0,0,12.42-18.65l-28.59-19.1v-5.89a93,93,0,0,0,11.19.68c21.79,0,67.15,0,67.15-56S191,315.23,154.63,315.23A252.25,252.25,0,0,0,85.55,326.5a32.47,32.47,0,0,0-31.64,33.57c0,22.36,19.29,29.83,39.17,32.34Zm-5.49-43.55a11.22,11.22,0,0,0,3.36-.57,234.27,234.27,0,0,1,63.68-10.64c44.28,0,89.54,4,89.54,33.64,0,31.29-17.73,33.63-44.77,33.63A66.76,66.76,0,0,1,154.14,387l-.19-.14-.75-.59a52.24,52.24,0,0,0-32.14-15c-15.67,0-44.77,0-44.77-11.22a10.29,10.29,0,0,1,11.3-11.21Z" transform="translate(24.38 54.73)"/></g></g></svg>