<?xml version="1.0" encoding="iso-8859-1"?>
<!-- Generator: Adobe Illustrator 19.0.0, SVG Export Plug-In . SVG Version: 6.00 Build 0)  -->
<svg version="1.1" id="Capa_1" xmlns="http://www.w3.org/2000/svg" xmlns:xlink="http://www.w3.org/1999/xlink" x="0px" y="0px"
	 viewBox="0 0 512 512" style="enable-background:new 0 0 512 512;" xml:space="preserve">
<g>
	<g>
		<path d="M407,271c-1.774,0.248-30.905-2.424-60.993,17.635C336.488,293.509,296.234,331,227,331h-92c-24.813,0-45-20.187-45-45
			v-90c0-24.813,20.187-45,45-45h121.998c14.053,18.718,36.225,30,60.002,30c36.22,0,66.522-25.808,73.491-60H437
			c8.284,0,15-6.716,15-15c0-8.271,6.729-15,15-15s15,6.729,15,15s-6.729,15-15,15c-8.284,0-15,6.716-15,15s6.716,15,15,15
			c24.813,0,45-20.187,45-45s-20.187-45-45-45c-19.557,0-36.239,12.539-42.43,30h-34.08c-6.968-34.192-37.27-60-73.49-60
			c-23.777,0-45.949,11.282-60.002,30H135C60.561,61,0,121.56,0,196v90c0,74.439,60.561,135,135,135h92
			c69.211,0,109.49,37.492,119.007,42.365C376.095,483.423,405.226,480.752,407,481c57.897,0,105-47.103,105-105
			C512,318.103,464.897,271,407,271z M286.981,72.478C295.118,65.202,305.761,61,317,61c24.813,0,45,20.187,45,45s-20.187,45-45,45
			c-11.239,0-21.882-4.202-30.019-11.479C296.191,131.275,302,119.305,302,106S296.191,80.724,286.981,72.478z M120,389.932
			C69.183,382.631,30,338.805,30,286v-90c0-57.897,47.103-105,105-105h122c8.271,0,15,6.729,15,15s-6.729,15-15,15H135
			c-41.355,0-75,33.645-75,75v90c0,36.219,25.81,66.524,60,73.493V389.932z M212,391h-62v-30h62V391z M407,451
			c-1.527-0.208-22.645,1.875-44.353-12.596c-9.762-5.162-50.503-41.977-120.647-46.881v-31.046
			c70.178-4.906,110.659-41.599,120.647-46.881C383.968,299.383,405.897,301.15,407,301c41.355,0,75,33.645,75,75
			C482,417.355,448.355,451,407,451z"/>
	</g>
</g>
<g>
	<g>
		<path d="M404.246,331c-8.901,0-17.53,2.612-24.961,7.558c-13.634,8.873-22.469,15.678-38.511,24.192
			c-4.905,2.603-7.971,7.703-7.969,13.256c0.002,5.553,3.072,10.651,7.979,13.25c15.831,8.385,24.805,15.267,38.506,24.18
			c13.112,8.753,26.678,7.431,27.71,7.564c24.813,0,45-20.187,45-45C452,350.766,431.024,331,404.246,331z M407,391
			c-1.61-0.163-6.122,0.776-11.064-2.523c-18.076-12.041-17.981-11.98-18.737-12.477c0.967-0.637-0.389,0.262,18.718-12.475
			c2.482-1.652,5.362-2.525,8.329-2.525c10.287,0,17.754,6.308,17.754,15C422,384.271,415.271,391,407,391z"/>
	</g>
</g>
<g>
</g>
<g>
</g>
<g>
</g>
<g>
</g>
<g>
</g>
<g>
</g>
<g>
</g>
<g>
</g>
<g>
</g>
<g>
</g>
<g>
</g>
<g>
</g>
<g>
</g>
<g>
</g>
<g>
</g>
</svg>
