<?xml version="1.0" encoding="iso-8859-1"?>
<!-- Generator: Adobe Illustrator 19.0.0, SVG Export Plug-In . SVG Version: 6.00 Build 0)  -->
<svg version="1.1" id="Capa_1" xmlns="http://www.w3.org/2000/svg" xmlns:xlink="http://www.w3.org/1999/xlink" x="0px" y="0px"
	 viewBox="0 0 512 512" style="enable-background:new 0 0 512 512;" xml:space="preserve">
<g>
	<g>
		<path d="M465.23,205.257C455.787,176.93,451,147.426,451,117.566c0-16.63,0-57.033,0-72.566c0-24.813-20.187-45-45-45H106
			C81.187,0,61,20.187,61,45c0,15.549,0,55.915,0,72.566c0,29.86-4.788,59.363-14.23,87.691C36.306,236.648,31,269.344,31,302.434
			V467c0,24.813,20.187,45,45,45h360c24.813,0,45-20.187,45-45V302.434C481,269.344,475.694,236.649,465.23,205.257z M391,30h15
			c8.271,0,15,6.729,15,15v15h-30V30z M331,30h30v30h-30V30z M271,30h30v30h-30V30z M211,30h30v30h-30V30z M151,30h30v30h-30V30z
			 M91,45c0-8.271,6.729-15,15-15h15v30H91V45z M91,117.566V90h330v27.566c0,10.865,0.584,21.686,1.722,32.434H89.278
			C90.416,139.252,91,128.431,91,117.566z M451,467c0,8.271-6.729,15-15,15H76c-8.271,0-15-6.729-15-15v-15h390V467z M451,422H61
			V302.434c0-29.86,4.788-59.363,14.23-87.691c3.807-11.423,6.923-23.02,9.358-34.743h342.824
			c2.435,11.724,5.55,23.321,9.358,34.743c9.443,28.327,14.23,57.831,14.23,87.691V422z"/>
	</g>
</g>
<g>
	<g>
		<path d="M391.001,285C391,260.187,370.813,240,346,240c-19.556,0-36.239,12.539-42.43,30h-95.14c-6.191-17.461-22.874-30-42.43-30
			c-24.813,0-45,20.187-45,45c0,11.514,4.347,22.033,11.486,30C125.347,322.967,121,333.486,121,345c0,24.813,20.187,45,45,45
			c19.556,0,36.239-12.539,42.43-30h95.141c6.191,17.461,22.874,30,42.43,30c24.813,0,45-20.187,45-45
			c0-11.514-4.347-22.033-11.486-30C386.654,307.033,391.001,296.514,391.001,285z M346,330c8.271,0,15,6.729,15,15s-6.729,15-15,15
			s-15-6.729-15-15c0-8.284-6.716-15-15-15H196c-8.284,0-15,6.716-15,15c0,8.271-6.729,15-15,15s-15-6.729-15-15s6.729-15,15-15
			c8.284,0,15-6.716,15-15s-6.716-15-15-15c-8.271,0-15-6.729-15-15s6.729-15,15-15s15,6.729,15,15c0,8.284,6.716,15,15,15h120
			c8.284,0,15-6.716,15-15c0-8.271,6.729-15,15-15s15,6.729,15,15s-6.729,15-15,15c-8.284,0-15,6.716-15,15S337.716,330,346,330z"/>
	</g>
</g>
<g>
</g>
<g>
</g>
<g>
</g>
<g>
</g>
<g>
</g>
<g>
</g>
<g>
</g>
<g>
</g>
<g>
</g>
<g>
</g>
<g>
</g>
<g>
</g>
<g>
</g>
<g>
</g>
<g>
</g>
</svg>
